<?xml version="1.0" standalone="no"?>
<svg version="1.0" xmlns="http://www.w3.org/2000/svg"
 width="175.000000pt" height="175.000000pt" viewBox="0 0 175.000000 175.000000"
 preserveAspectRatio="xMidYMid meet">

<g transform="translate(0.000000,175.000000) scale(0.100000,-0.100000)"
fill="#000000" stroke="none">
<path d="M765 1405 c-34 -7 -83 -23 -110 -36 -71 -33 -163 -129 -209 -219
l-39 -75 53 50 c29 28 63 60 74 72 66 67 192 131 346 175 98 28 111 34 85 39
-49 11 -136 8 -200 -6z"/>
<path d="M1055 1310 c-49 -14 -105 -35 -124 -44 -19 -10 -58 -21 -88 -25 -49
-7 -53 -6 -47 11 3 10 3 18 1 18 -2 0 -46 -15 -96 -34 -73 -27 -104 -45 -149
-87 -31 -29 -61 -55 -65 -59 -4 -4 23 4 60 16 37 13 120 33 183 45 63 13 142
35 175 51 62 29 240 78 281 78 28 0 30 8 7 27 -39 30 -48 30 -138 3z"/>
<path d="M910 1155 c-8 -2 -50 -9 -92 -16 -45 -7 -75 -16 -71 -21 3 -6 -3 -7
-15 -3 -22 6 -130 -20 -235 -57 -42 -15 -54 -24 -45 -30 9 -7 8 -8 -5 -4 -39
13 -170 -82 -204 -148 -14 -27 -14 -36 3 -102 l18 -72 45 22 c55 28 235 88
346 115 236 58 472 90 707 93 l168 3 0 59 c0 57 -2 62 -39 97 -22 20 -59 42
-83 49 -40 11 -460 24 -498 15z m130 -30 c0 -12 -20 -29 -58 -50 -1 -1 5 -19
13 -40 l16 -37 25 23 c28 26 29 25 37 -23 5 -31 2 -37 -16 -42 -57 -15 -76 -8
-96 37 -57 126 -57 133 -1 140 70 8 80 7 80 -8z m-313 -21 c-3 -3 -12 -4 -19
-1 -8 3 -5 6 6 6 11 1 17 -2 13 -5z m63 -9 c0 -8 -14 -18 -32 -23 -23 -6 -34
-15 -36 -30 -3 -20 -1 -21 23 -12 40 15 40 15 37 -54 l-4 -64 -50 -21 c-28
-11 -54 -18 -59 -15 -21 13 -6 33 39 51 30 13 49 27 49 37 0 19 -20 21 -49 5
-28 -15 -31 -8 -23 54 7 52 9 56 44 70 47 20 61 20 61 2z m369 -57 c0 -61 -2
-69 -11 -45 -12 32 -28 27 -28 -11 0 -35 -14 -17 -29 38 -7 25 -15 53 -17 63
-9 29 25 20 38 -10 l12 -28 4 33 c2 19 9 32 18 32 11 0 14 -16 13 -72z m51
-60 c0 -10 -7 -18 -15 -18 -12 0 -15 15 -14 78 l1 77 14 -60 c7 -33 13 -68 14
-77z m100 106 c0 -18 -4 -25 -14 -21 -10 4 -15 -7 -19 -39 -8 -74 -23 -75 -29
-4 -3 36 -8 44 -21 42 -12 -2 -17 4 -17 23 0 23 3 25 50 25 47 0 50 -1 50 -26z
m117 10 c3 -7 -9 -30 -26 -49 -17 -20 -31 -38 -31 -41 0 -4 16 -3 36 0 31 6
35 5 32 -11 -3 -14 -15 -19 -62 -21 -82 -4 -90 8 -36 63 44 45 44 45 17 45
-15 0 -27 4 -27 9 0 9 11 11 73 18 10 1 21 -5 24 -13z m-742 -4 c-3 -5 -12 -7
-20 -3 -21 7 -19 13 6 13 11 0 18 -4 14 -10z m-85 -19 c-8 -5 -26 -11 -40 -15
-21 -5 -20 -3 5 9 32 15 60 20 35 6z m69 -38 c-3 -45 -15 -78 -29 -78 -11 0
-15 -11 -15 -37 0 -67 -20 -40 -25 33 -4 63 -3 73 15 85 27 20 55 18 54 -3z
m-96 -29 c-4 -10 -9 -12 -15 -6 -12 12 -1 35 12 27 5 -3 6 -13 3 -21z m267 6
c0 -5 -5 -10 -11 -10 -5 0 -7 5 -4 10 3 6 8 10 11 10 2 0 4 -4 4 -10z m-420
-55 c0 -13 -5 -35 -11 -49 -10 -21 -8 -27 22 -54 l33 -30 -53 -26 c-29 -15
-54 -26 -56 -24 -2 2 -10 41 -18 87 l-14 83 41 18 c54 24 56 24 56 -5z m71
-38 c2 -43 6 -56 16 -52 7 3 20 8 28 11 29 12 15 -22 -16 -40 -37 -22 -41 -18
-59 62 -11 50 -11 57 6 69 9 7 19 12 20 10 2 -1 4 -28 5 -60z m93 31 c11 -42
7 -78 -9 -78 -11 0 -15 12 -15 50 0 52 13 67 24 28z"/>
<path d="M623 1023 c-18 -7 -16 -43 2 -43 9 0 15 9 15 25 0 14 -1 25 -2 24 -2
0 -9 -3 -15 -6z"/>
<path d="M365 936 c-11 -7 -15 -18 -10 -25 5 -9 11 -7 22 9 19 26 13 34 -12
16z"/>
<path d="M370 823 c0 -21 2 -24 15 -13 8 7 15 16 15 20 0 4 -7 10 -15 14 -11
4 -15 -2 -15 -21z"/>
<path d="M1288 851 c-57 -11 -78 -20 -81 -33 -4 -12 -15 -18 -34 -18 -27 -1
-27 -1 -9 -15 34 -26 79 -19 104 15 24 31 52 40 52 16 0 -8 9 -16 21 -18 20
-3 20 -3 -3 -38 -13 -19 -37 -40 -53 -45 -17 -6 -39 -16 -50 -22 -18 -11 -15
-12 23 -13 72 0 99 23 117 101 8 38 15 73 15 78 0 13 -2 13 -102 -8z"/>
<path d="M740 810 c-124 -27 -165 -37 -268 -67 -61 -17 -62 -25 -9 -104 29
-43 36 -47 92 -57 118 -21 184 -24 270 -12 47 7 89 10 92 7 2 -3 -27 -15 -66
-27 -95 -28 -94 -41 3 -55 57 -9 100 0 92 20 -8 21 23 34 94 42 62 6 67 4 50
-27 -8 -15 -6 -17 13 -13 16 4 19 3 11 -6 -16 -18 -124 -52 -184 -59 l-55 -6
45 -7 c97 -16 168 -10 221 17 95 48 190 157 162 185 -10 10 -28 5 -80 -19 -96
-43 -137 -49 -155 -23 -13 19 -17 19 -34 6 -25 -19 -34 -19 -34 1 0 33 53 70
128 88 40 10 82 26 94 36 22 17 21 17 -23 24 -25 4 -63 16 -83 27 -56 30 -122
28 -177 -4 -31 -18 -60 -27 -90 -27 -52 0 -115 -27 -148 -63 -32 -35 -19 -48
47 -47 31 1 75 -2 97 -5 34 -6 46 -2 83 24 49 36 54 58 15 63 l-28 3 27 18
c21 15 34 17 55 10 48 -16 40 -38 -34 -87 -130 -86 -295 -100 -395 -32 -72 48
-37 75 158 124 136 34 194 56 194 71 0 16 -42 12 -180 -19z"/>
</g>
</svg>
